{
  "accessors": [
    {
      "bufferView": 2,
      "componentType": 5126,
      "count": 52580,
      "max": [
        29.532997131347656,
        96.01423645019531,
        25.98780632019043
      ],
      "min": [
        -30.92780303955078,
        -0.9041240811347961,
        -26.543542861938477
      ],
      "type": "VEC3"
    },
    {
      "bufferView": 2,
      "byteOffset": 630960,
      "componentType": 5126,
      "count": 52580,
      "max": [
        0.999771237373352,
        0.9999216794967651,
        0.9999992847442627
      ],
      "min": [
        -0.9999848008155823,
        -0.9999774694442749,
        -0.9999857544898987
      ],
      "type": "VEC3"
    },
    {
      "bufferView": 1,
      "componentType": 5126,
      "count": 52580,
      "max": [
        1.0,
        1.0
      ],
      "min": [
        0.0,
        0.0
      ],
      "type": "VEC2"
    },
    {
      "bufferView": 0,
      "componentType": 5125,
      "count": 94380,
      "type": "SCALAR"
    },
    {
      "bufferView": 2,
      "byteOffset": 1261920,
      "componentType": 5126,
      "count": 57040,
      "max": [
        21.877660751342773,
        96.29039001464844,
        29.855417251586914
      ],
      "min": [
        -31.21892547607422,
        -1.8137140274047852,
        -37.53719711303711
      ],
      "type": "VEC3"
    },
    {
      "bufferView": 2,
      "byteOffset": 1946400,
      "componentType": 5126,
      "count": 57040,
      "max": [
        0.9999163150787354,
        0.9999396204948425,
        0.9998443126678467
      ],
      "min": [
        -0.9999680519104004,
        -0.9997103810310364,
        -0.99998939037323
      ],
      "type": "VEC3"
    },
    {
      "bufferView": 1,
      "byteOffset": 420640,
      "componentType": 5126,
      "count": 57040,
      "max": [
        1.0,
        1.0
      ],
      "min": [
        0.0,
        0.0
      ],
      "type": "VEC2"
    },
    {
      "bufferView": 0,
      "byteOffset": 377520,
      "componentType": 5125,
      "count": 102636,
      "type": "SCALAR"
    },
    {
      "bufferView": 2,
      "byteOffset": 2630880,
      "componentType": 5126,
      "count": 61920,
      "max": [
        33.4796257019043,
        97.35799407958984,
        18.46156120300293
      ],
      "min": [
        -34.454925537109375,
        -1.2524961233139038,
        -27.288532257080078
      ],
      "type": "VEC3"
    },
    {
      "bufferView": 2,
      "byteOffset": 3373920,
      "componentType": 5126,
      "count": 61920,
      "max": [
        0.9999784827232361,
        0.9999061822891235,
        0.9999950528144836
      ],
      "min": [
        -0.9999611377716064,
        -0.9999392032623291,
        -0.9999914169311523
      ],
      "type": "VEC3"
    },
    {
      "bufferView": 1,
      "byteOffset": 876960,
      "componentType": 5126,
      "count": 61920,
      "max": [
        1.0,
        1.0
      ],
      "min": [
        0.0,
        0.0
      ],
      "type": "VEC2"
    },
    {
      "bufferView": 0,
      "byteOffset": 788064,
      "componentType": 5125,
      "count": 111456,
      "type": "SCALAR"
    },
    {
      "bufferView": 2,
      "byteOffset": 4116960,
      "componentType": 5126,
      "count": 12631,
      "max": [
        23.15663719177246,
        97.64127349853516,
        18.6669921875
      ],
      "min": [
        -27.0692195892334,
        -0.9770317077636719,
        -32.83650588989258
      ],
      "type": "VEC3"
    },
    {
      "bufferView": 2,
      "byteOffset": 4268532,
      "componentType": 5126,
      "count": 12631,
      "max": [
        0.9999734163284302,
        0.9999851584434509,
        0.9998445510864258
      ],
      "min": [
        -0.9999442100524902,
        -0.9999698996543884,
        -0.9999416470527649
      ],
      "type": "VEC3"
    },
    {
      "bufferView": 1,
      "byteOffset": 1372320,
      "componentType": 5126,
      "count": 12631,
      "max": [
        0.65625,
        1.0
      ],
      "min": [
        0.34375,
        1.4901161193847656e-08
      ],
      "type": "VEC2"
    },
    {
      "bufferView": 0,
      "byteOffset": 1233888,
      "componentType": 5125,
      "count": 53472,
      "type": "SCALAR"
    }
  ],
  "asset": {
    "extras": {
      "author": "MasterOfTheMadWorld (https://sketchfab.com/masterofthemadworld)",
      "license": "CC-BY-4.0 (http://creativecommons.org/licenses/by/4.0/)",
      "source": "https://sketchfab.com/3d-models/autumn-maple-fe8ce41c430140c1bf125ea830fe5907",
      "title": "Autumn maple"
    },
    "generator": "Sketchfab-11.94.0",
    "version": "2.0"
  },
  "bufferViews": [
    {
      "buffer": 0,
      "byteLength": 1447776,
      "name": "floatBufferViews",
      "target": 34963
    },
    {
      "buffer": 0,
      "byteLength": 1473368,
      "byteOffset": 1447776,
      "byteStride": 8,
      "name": "floatBufferViews",
      "target": 34962
    },
    {
      "buffer": 0,
      "byteLength": 4420104,
      "byteOffset": 2921144,
      "byteStride": 12,
      "name": "floatBufferViews",
      "target": 34962
    }
  ],
  "buffers": [
    {
      "byteLength": 7341248,
      "uri": "scene.bin"
    }
  ],
  "materials": [
    {
      "doubleSided": true,
      "name": "lambert11",
      "pbrMetallicRoughness": {
        "baseColorFactor": [
          0.6679999999999999,
          0.11510000000000006,
          0.03674000000000004,
          1.0
        ],
        "metallicFactor": 0.3273956944179844,
        "roughnessFactor": 0.5895408649266527
      }
    },
    {
      "doubleSided": true,
      "name": "lambert12",
      "pbrMetallicRoughness": {
        "baseColorFactor": [
          0.789,
          0.25935900000000006,
          0.043395000000000024,
          1.0
        ],
        "metallicFactor": 0.26033530196227855,
        "roughnessFactor": 0.7480472470946847
      }
    },
    {
      "doubleSided": true,
      "name": "lambert13",
      "pbrMetallicRoughness": {
        "baseColorFactor": [
          1.0,
          0.30296699999999976,
          0.033999999999999975,
          1.0
        ],
        "metallicFactor": 0.2847208992188988,
        "roughnessFactor": 0.8273004381787007
      }
    },
    {
      "doubleSided": true,
      "name": "lambert10",
      "pbrMetallicRoughness": {
        "baseColorFactor": [
          0.1950014288435893,
          0.1095091231663174,
          0.08209560154315108,
          1.0
        ],
        "metallicFactor": 0.0,
        "roughnessFactor": 0.46761287864355117
      }
    }
  ],
  "meshes": [
    {
      "name": "red_lambert11_0",
      "primitives": [
        {
          "attributes": {
            "NORMAL": 1,
            "POSITION": 0,
            "TEXCOORD_0": 2
          },
          "indices": 3,
          "material": 0,
          "mode": 4
        }
      ]
    },
    {
      "name": "orange_lambert12_0",
      "primitives": [
        {
          "attributes": {
            "NORMAL": 5,
            "POSITION": 4,
            "TEXCOORD_0": 6
          },
          "indices": 7,
          "material": 1,
          "mode": 4
        }
      ]
    },
    {
      "name": "yellow_lambert13_0",
      "primitives": [
        {
          "attributes": {
            "NORMAL": 9,
            "POSITION": 8,
            "TEXCOORD_0": 10
          },
          "indices": 11,
          "material": 2,
          "mode": 4
        }
      ]
    },
    {
      "name": "tree_lambert10_0",
      "primitives": [
        {
          "attributes": {
            "NORMAL": 13,
            "POSITION": 12,
            "TEXCOORD_0": 14
          },
          "indices": 15,
          "material": 3,
          "mode": 4
        }
      ]
    }
  ],
  "nodes": [
    {
      "children": [
        1
      ],
      "matrix": [
        1.0,
        0.0,
        0.0,
        0.0,
        0.0,
        2.220446049250313e-16,
        -1.0,
        0.0,
        0.0,
        1.0,
        2.220446049250313e-16,
        0.0,
        0.0,
        0.0,
        0.0,
        1.0
      ],
      "name": "Sketchfab_model"
    },
    {
      "children": [
        2
      ],
      "matrix": [
        0.009999999776482582,
        0.0,
        0.0,
        0.0,
        0.0,
        0.0,
        0.009999999776482582,
        0.0,
        0.0,
        -0.009999999776482582,
        0.0,
        0.0,
        0.0,
        0.0,
        0.0,
        1.0
      ],
      "name": "3b64156f375e49d9b4e65b91157b536e.fbx"
    },
    {
      "children": [
        3
      ],
      "name": "RootNode"
    },
    {
      "children": [
        4,
        6,
        8,
        10
      ],
      "name": "treee"
    },
    {
      "children": [
        5
      ],
      "name": "red"
    },
    {
      "mesh": 0,
      "name": "red_lambert11_0"
    },
    {
      "children": [
        7
      ],
      "name": "orange"
    },
    {
      "mesh": 1,
      "name": "orange_lambert12_0"
    },
    {
      "children": [
        9
      ],
      "name": "yellow"
    },
    {
      "mesh": 2,
      "name": "yellow_lambert13_0"
    },
    {
      "children": [
        11
      ],
      "name": "tree"
    },
    {
      "mesh": 3,
      "name": "tree_lambert10_0"
    }
  ],
  "scene": 0,
  "scenes": [
    {
      "name": "Sketchfab_Scene",
      "nodes": [
        0
      ]
    }
  ]
}
