{
  "accessors": [
    {
      "bufferView": 2,
      "componentType": 5126,
      "count": 16,
      "max": [
        16.435405731201172,
        1.3151454925537109,
        4.1431007385253906
      ],
      "min": [
        -3.9041402339935303,
        -1.0117417573928833,
        -15.856899261474609
      ],
      "type": "VEC3"
    },
    {
      "bufferView": 2,
      "byteOffset": 192,
      "componentType": 5126,
      "count": 16,
      "max": [
        0.22343644499778748,
        0.99942594766616821,
        0.1498674601316452
      ],
      "min": [
        -0.14233608543872833,
        0.97252881526947021,
        -0.077966324985027313
      ],
      "type": "VEC3"
    },
    {
      "bufferView": 1,
      "componentType": 5126,
      "count": 16,
      "max": [
        1,
        1
      ],
      "min": [
        0,
        0
      ],
      "type": "VEC2"
    },
    {
      "bufferView": 1,
      "byteOffset": 128,
      "componentType": 5126,
      "count": 16,
      "max": [
        1,
        1
      ],
      "min": [
        0,
        0
      ],
      "type": "VEC2"
    },
    {
      "bufferView": 0,
      "componentType": 5125,
      "count": 54,
      "max": [
        15
      ],
      "min": [
        0
      ],
      "type": "SCALAR"
    },
    {
      "bufferView": 2,
      "byteOffset": 384,
      "componentType": 5126,
      "count": 16,
      "max": [
        16.774110794067383,
        1.1409528255462646,
        3.8348429203033447
      ],
      "min": [
        -3.5654346942901611,
        -1.1859344244003296,
        -16.165157318115234
      ],
      "type": "VEC3"
    },
    {
      "bufferView": 2,
      "byteOffset": 576,
      "componentType": 5126,
      "count": 16,
      "max": [
        0.22343644499778748,
        0.99942594766616821,
        0.1498674601316452
      ],
      "min": [
        -0.14233608543872833,
        0.97252881526947021,
        -0.077966324985027313
      ],
      "type": "VEC3"
    },
    {
      "bufferView": 1,
      "byteOffset": 256,
      "componentType": 5126,
      "count": 16,
      "max": [
        1,
        1
      ],
      "min": [
        0,
        0
      ],
      "type": "VEC2"
    },
    {
      "bufferView": 1,
      "byteOffset": 384,
      "componentType": 5126,
      "count": 16,
      "max": [
        1,
        1
      ],
      "min": [
        0,
        0
      ],
      "type": "VEC2"
    },
    {
      "bufferView": 0,
      "byteOffset": 216,
      "componentType": 5125,
      "count": 54,
      "max": [
        15
      ],
      "min": [
        0
      ],
      "type": "SCALAR"
    },
    {
      "bufferView": 2,
      "byteOffset": 768,
      "componentType": 5126,
      "count": 16,
      "max": [
        16.435405731201172,
        1.3151454925537109,
        4.1431007385253906
      ],
      "min": [
        -3.9041402339935303,
        -1.0117417573928833,
        -15.856899261474609
      ],
      "type": "VEC3"
    },
    {
      "bufferView": 2,
      "byteOffset": 960,
      "componentType": 5126,
      "count": 16,
      "max": [
        0.22343644499778748,
        0.99942594766616821,
        0.1498674601316452
      ],
      "min": [
        -0.14233608543872833,
        0.97252881526947021,
        -0.077966324985027313
      ],
      "type": "VEC3"
    },
    {
      "bufferView": 1,
      "byteOffset": 512,
      "componentType": 5126,
      "count": 16,
      "max": [
        1,
        1
      ],
      "min": [
        0,
        0
      ],
      "type": "VEC2"
    },
    {
      "bufferView": 1,
      "byteOffset": 640,
      "componentType": 5126,
      "count": 16,
      "max": [
        1,
        1
      ],
      "min": [
        0,
        0
      ],
      "type": "VEC2"
    },
    {
      "bufferView": 0,
      "byteOffset": 432,
      "componentType": 5125,
      "count": 54,
      "max": [
        15
      ],
      "min": [
        0
      ],
      "type": "SCALAR"
    },
    {
      "bufferView": 3,
      "componentType": 5126,
      "count": 1,
      "max": [
        0.041666667908430099
      ],
      "min": [
        0.041666667908430099
      ],
      "type": "SCALAR"
    },
    {
      "bufferView": 4,
      "componentType": 5126,
      "count": 1,
      "max": [
        -0.3387056291103363,
        1.5391916036605835,
        0.30825787782669067
      ],
      "min": [
        -0.3387056291103363,
        1.5391916036605835,
        0.30825787782669067
      ],
      "type": "VEC3"
    },
    {
      "bufferView": 3,
      "byteOffset": 4,
      "componentType": 5126,
      "count": 1,
      "max": [
        0.041666667908430099
      ],
      "min": [
        0.041666667908430099
      ],
      "type": "SCALAR"
    },
    {
      "bufferView": 5,
      "componentType": 5126,
      "count": 1,
      "max": [
        0.057556521147489548,
        -0.85936135053634644,
        -0.033955693244934082,
        0.50698357820510864
      ],
      "min": [
        0.057556521147489548,
        -0.85936135053634644,
        -0.033955693244934082,
        0.50698357820510864
      ],
      "type": "VEC4"
    }
  ],
  "animations": [
    {
      "channels": [
        {
          "sampler": 0,
          "target": {
            "node": 7,
            "path": "translation"
          }
        },
        {
          "sampler": 1,
          "target": {
            "node": 7,
            "path": "rotation"
          }
        }
      ],
      "name": "Take 001",
      "samplers": [
        {
          "input": 15,
          "interpolation": "LINEAR",
          "output": 16
        },
        {
          "input": 17,
          "interpolation": "LINEAR",
          "output": 18
        }
      ]
    }
  ],
  "asset": {
    "extras": {
      "author": "Ryan.chaney (https://sketchfab.com/Ryan.chaney)",
      "license": "CC-BY-4.0 (http://creativecommons.org/licenses/by/4.0/)",
      "source": "https://sketchfab.com/3d-models/autumn-leaves-5bdd2e302fe04e1781c30ba9ae3bcdee",
      "title": "Autumn Leaves"
    },
    "generator": "Sketchfab-9.52.0",
    "version": "2.0"
  },
  "bufferViews": [
    {
      "buffer": 0,
      "byteLength": 648,
      "byteOffset": 0,
      "name": "floatBufferViews",
      "target": 34963
    },
    {
      "buffer": 0,
      "byteLength": 768,
      "byteOffset": 648,
      "byteStride": 8,
      "name": "floatBufferViews",
      "target": 34962
    },
    {
      "buffer": 0,
      "byteLength": 1152,
      "byteOffset": 1416,
      "byteStride": 12,
      "name": "floatBufferViews",
      "target": 34962
    },
    {
      "buffer": 0,
      "byteLength": 8,
      "byteOffset": 2568,
      "name": "floatBufferViews"
    },
    {
      "buffer": 0,
      "byteLength": 12,
      "byteOffset": 2576,
      "byteStride": 12,
      "name": "floatBufferViews"
    },
    {
      "buffer": 0,
      "byteLength": 16,
      "byteOffset": 2588,
      "byteStride": 16,
      "name": "floatBufferViews"
    }
  ],
  "buffers": [
    {
      "byteLength": 2604,
      "uri": "scene.bin"
    }
  ],
  "extensionsRequired": [
    "KHR_materials_pbrSpecularGlossiness"
  ],
  "extensionsUsed": [
    "KHR_materials_pbrSpecularGlossiness"
  ],
  "images": [
    {
      "uri": "textures/Leaf_diffuse.png"
    }
  ],
  "materials": [
    {
      "alphaMode": "BLEND",
      "doubleSided": true,
      "extensions": {
        "KHR_materials_pbrSpecularGlossiness": {
          "diffuseFactor": [
            1,
            1,
            1,
            1
          ],
          "diffuseTexture": {
            "index": 0,
            "texCoord": 0
          },
          "glossinessFactor": 0.40000000000000002,
          "specularFactor": [
            0,
            0,
            0
          ]
        }
      },
      "name": "Leaf"
    }
  ],
  "meshes": [
    {
      "name": "pPlane1_Leaf_0",
      "primitives": [
        {
          "attributes": {
            "NORMAL": 1,
            "POSITION": 0,
            "TEXCOORD_0": 2,
            "TEXCOORD_1": 3
          },
          "indices": 4,
          "material": 0,
          "mode": 4
        }
      ]
    },
    {
      "name": "pPlane2_Leaf_0",
      "primitives": [
        {
          "attributes": {
            "NORMAL": 6,
            "POSITION": 5,
            "TEXCOORD_0": 7,
            "TEXCOORD_1": 8
          },
          "indices": 9,
          "material": 0,
          "mode": 4
        }
      ]
    },
    {
      "name": "pPlane3_Leaf_0",
      "primitives": [
        {
          "attributes": {
            "NORMAL": 11,
            "POSITION": 10,
            "TEXCOORD_0": 12,
            "TEXCOORD_1": 13
          },
          "indices": 14,
          "material": 0,
          "mode": 4
        }
      ]
    }
  ],
  "nodes": [
    {
      "children": [
        1
      ],
      "name": "RootNode (gltf orientation matrix)",
      "rotation": [
        -0.70710678118654746,
        -0,
        -0,
        0.70710678118654757
      ]
    },
    {
      "children": [
        2
      ],
      "name": "RootNode (model correction matrix)"
    },
    {
      "children": [
        3
      ],
      "matrix": [
        1,
        0,
        0,
        0,
        0,
        0,
        1,
        0,
        0,
        -1,
        0,
        0,
        0,
        0,
        0,
        1
      ],
      "name": "a46e216a7e1b472d98cddf82bafaf9a8.fbx"
    },
    {
      "children": [
        4
      ],
      "name": ""
    },
    {
      "children": [
        5,
        7,
        9
      ],
      "name": "RootNode"
    },
    {
      "children": [
        6
      ],
      "name": "pPlane1"
    },
    {
      "mesh": 0,
      "name": "pPlane1_Leaf_0"
    },
    {
      "children": [
        8
      ],
      "name": "pPlane2",
      "rotation": [
        -0.05544634535908699,
        0.94047510623931885,
        0.0291549451649189,
        -0.33403962850570679
      ],
      "translation": [
        -0.3387056291103363,
        0.80295735597610474,
        0.30825787782669067
      ]
    },
    {
      "mesh": 1,
      "name": "pPlane2_Leaf_0"
    },
    {
      "children": [
        10
      ],
      "name": "pPlane3",
      "rotation": [
        0.012718737125396729,
        0.84609740972518921,
        0.023337293416261673,
        0.53236526250839233
      ],
      "translation": [
        -2.80348801612854,
        0.63671767711639404,
        -2.8545725345611572
      ]
    },
    {
      "mesh": 2,
      "name": "pPlane3_Leaf_0"
    }
  ],
  "samplers": [
    {
      "magFilter": 9729,
      "minFilter": 9987,
      "wrapS": 10497,
      "wrapT": 10497
    }
  ],
  "scene": 0,
  "scenes": [
    {
      "name": "OSG_Scene",
      "nodes": [
        0
      ]
    }
  ],
  "textures": [
    {
      "sampler": 0,
      "source": 0
    }
  ]
}

