{
  "accessors": [
    {
      "bufferView": 2,
      "componentType": 5126,
      "count": 48,
      "max": [
        0.071509003639221191,
        0.071509003639221191,
        0.25251701474189758
      ],
      "min": [
        -0.071509003639221191,
        -0.071509003639221191,
        -0.0098559996113181114
      ],
      "type": "VEC3"
    },
    {
      "bufferView": 2,
      "byteOffset": 576,
      "componentType": 5126,
      "count": 48,
      "max": [
        1,
        1,
        1
      ],
      "min": [
        -1,
        -1,
        -1
      ],
      "type": "VEC3"
    },
    {
      "bufferView": 1,
      "componentType": 5126,
      "count": 48,
      "max": [
        0.81250602006912231,
        1
      ],
      "min": [
        0.18749399483203888,
        0
      ],
      "type": "VEC2"
    },
    {
      "bufferView": 0,
      "componentType": 5125,
      "count": 84,
      "max": [
        47
      ],
      "min": [
        0
      ],
      "type": "SCALAR"
    },
    {
      "bufferView": 2,
      "byteOffset": 1152,
      "componentType": 5126,
      "count": 189,
      "max": [
        0.70710700750350952,
        0.70710700750350952,
        1.3249800205230713
      ],
      "min": [
        -0.70710700750350952,
        -0.70710700750350952,
        0.23874199390411377
      ],
      "type": "VEC3"
    },
    {
      "bufferView": 2,
      "byteOffset": 3420,
      "componentType": 5126,
      "count": 189,
      "max": [
        0.72441476583480835,
        0.7244144082069397,
        0.66072601079940796
      ],
      "min": [
        -0.72441393136978149,
        -0.7244144082069397,
        -1
      ],
      "type": "VEC3"
    },
    {
      "bufferView": 1,
      "byteOffset": 384,
      "componentType": 5126,
      "count": 189,
      "max": [
        0.75,
        0.86864697933197021
      ],
      "min": [
        0.25,
        0
      ],
      "type": "VEC2"
    },
    {
      "bufferView": 0,
      "byteOffset": 336,
      "componentType": 5125,
      "count": 429,
      "max": [
        188
      ],
      "min": [
        0
      ],
      "type": "SCALAR"
    },
    {
      "bufferView": 2,
      "byteOffset": 5688,
      "componentType": 5126,
      "count": 699,
      "max": [
        0.7134060263633728,
        0.7134060263633728,
        1.4777539968490601
      ],
      "min": [
        -0.7134060263633728,
        -0.7134060263633728,
        0.23874199390411377
      ],
      "type": "VEC3"
    },
    {
      "bufferView": 2,
      "byteOffset": 14076,
      "componentType": 5126,
      "count": 699,
      "max": [
        0.94122099876403809,
        0.88628572225570679,
        1
      ],
      "min": [
        -0.84232109785079956,
        -0.83914715051651001,
        -1
      ],
      "type": "VEC3"
    },
    {
      "bufferView": 1,
      "byteOffset": 1896,
      "componentType": 5126,
      "count": 699,
      "max": [
        0.75,
        1
      ],
      "min": [
        0.25,
        0
      ],
      "type": "VEC2"
    },
    {
      "bufferView": 0,
      "byteOffset": 2052,
      "componentType": 5125,
      "count": 1233,
      "max": [
        698
      ],
      "min": [
        0
      ],
      "type": "SCALAR"
    }
  ],
  "asset": {
    "extras": {
      "author": "Jackmcm (https://sketchfab.com/Jackmcm)",
      "license": "CC-BY-4.0 (http://creativecommons.org/licenses/by/4.0/)",
      "source": "https://sketchfab.com/3d-models/low-poly-snow-tree-38ca4cbb92194eebad237b2e063f6b6e",
      "title": "low-poly snow tree"
    },
    "generator": "Sketchfab-9.81.0",
    "version": "2.0"
  },
  "bufferViews": [
    {
      "buffer": 0,
      "byteLength": 6984,
      "byteOffset": 0,
      "name": "floatBufferViews",
      "target": 34963
    },
    {
      "buffer": 0,
      "byteLength": 7488,
      "byteOffset": 6984,
      "byteStride": 8,
      "name": "floatBufferViews",
      "target": 34962
    },
    {
      "buffer": 0,
      "byteLength": 22464,
      "byteOffset": 14472,
      "byteStride": 12,
      "name": "floatBufferViews",
      "target": 34962
    }
  ],
  "buffers": [
    {
      "byteLength": 36936,
      "uri": "scene.bin"
    }
  ],
  "materials": [
    {
      "doubleSided": true,
      "name": "lambert2SG",
      "pbrMetallicRoughness": {
        "baseColorFactor": [
          0.013224822254567005,
          0.17534715041373466,
          0.014338423837290162,
          1
        ],
        "metallicFactor": 0,
        "roughnessFactor": 1
      }
    },
    {
      "doubleSided": true,
      "name": "lambert3SG",
      "pbrMetallicRoughness": {
        "baseColorFactor": [
          0.57571940139161815,
          0.55313271565471156,
          0.55313271565471156,
          1
        ],
        "metallicFactor": 0,
        "roughnessFactor": 0.59999999999999998
      }
    },
    {
      "doubleSided": true,
      "name": "lambert4SG",
      "pbrMetallicRoughness": {
        "baseColorFactor": [
          0.29038714120494302,
          0.21158072093758656,
          0.045715478487719646,
          1
        ],
        "metallicFactor": 0,
        "roughnessFactor": 0.59999999999999998
      }
    }
  ],
  "meshes": [
    {
      "primitives": [
        {
          "attributes": {
            "NORMAL": 1,
            "POSITION": 0,
            "TEXCOORD_0": 2
          },
          "indices": 3,
          "material": 2,
          "mode": 4
        }
      ]
    },
    {
      "primitives": [
        {
          "attributes": {
            "NORMAL": 5,
            "POSITION": 4,
            "TEXCOORD_0": 6
          },
          "indices": 7,
          "material": 0,
          "mode": 4
        }
      ]
    },
    {
      "primitives": [
        {
          "attributes": {
            "NORMAL": 9,
            "POSITION": 8,
            "TEXCOORD_0": 10
          },
          "indices": 11,
          "material": 1,
          "mode": 4
        }
      ]
    }
  ],
  "nodes": [
    {
      "children": [
        1
      ],
      "name": "RootNode (gltf orientation matrix)",
      "rotation": [
        -0.70710678118654746,
        -0,
        -0,
        0.70710678118654757
      ]
    },
    {
      "children": [
        2
      ],
      "name": "RootNode (model correction matrix)"
    },
    {
      "children": [
        3,
        4,
        5
      ],
      "name": "8087c489b90a423db61089e421c515c3.obj.cleaner.materialmerger.gles"
    },
    {
      "mesh": 0,
      "name": ""
    },
    {
      "mesh": 1,
      "name": ""
    },
    {
      "mesh": 2,
      "name": ""
    }
  ],
  "scene": 0,
  "scenes": [
    {
      "name": "OSG_Scene",
      "nodes": [
        0
      ]
    }
  ]
}

