{
  "accessors": [
    {
      "bufferView": 2,
      "componentType": 5126,
      "count": 7349,
      "max": [
        6.53778600692749,
        6.53778600692749,
        63.67287063598633
      ],
      "min": [
        -6.53778600692749,
        -6.53778600692749,
        0.0
      ],
      "type": "VEC3"
    },
    {
      "bufferView": 2,
      "byteOffset": 88188,
      "componentType": 5126,
      "count": 7349,
      "max": [
        1.0,
        1.0,
        1.0
      ],
      "min": [
        -1.0,
        -1.0,
        -1.0
      ],
      "type": "VEC3"
    },
    {
      "bufferView": 1,
      "componentType": 5126,
      "count": 7349,
      "max": [
        1.0,
        1.0
      ],
      "min": [
        0.0,
        -0.0
      ],
      "type": "VEC2"
    },
    {
      "bufferView": 0,
      "componentType": 5125,
      "count": 38427,
      "type": "SCALAR"
    },
    {
      "bufferView": 2,
      "byteOffset": 176376,
      "componentType": 5126,
      "count": 1004,
      "max": [
        21.725082397460938,
        0.0,
        1.6596759557724
      ],
      "min": [
        9.59469223022461,
        -0.3385530114173889,
        -0.4562099874019623
      ],
      "type": "VEC3"
    },
    {
      "bufferView": 2,
      "byteOffset": 188424,
      "componentType": 5126,
      "count": 1004,
      "max": [
        0.9818915724754333,
        1.0,
        0.9818912148475647
      ],
      "min": [
        -0.9818915724754333,
        -1.0,
        -0.9818913340568542
      ],
      "type": "VEC3"
    },
    {
      "bufferView": 1,
      "byteOffset": 58792,
      "componentType": 5126,
      "count": 1004,
      "max": [
        0.9501500129699707,
        0.9980080127716064
      ],
      "min": [
        0.0018970000091940165,
        0.0019920000340789557
      ],
      "type": "VEC2"
    },
    {
      "bufferView": 0,
      "byteOffset": 153708,
      "componentType": 5125,
      "count": 2292,
      "type": "SCALAR"
    }
  ],
  "asset": {
    "extras": {
      "author": "lcoyne (https://sketchfab.com/lcoyne)",
      "license": "CC-BY-4.0 (http://creativecommons.org/licenses/by/4.0/)",
      "source": "https://sketchfab.com/3d-models/doric-pillar-f5be847e525e401299f2a119372edd18",
      "title": "Doric Pillar"
    },
    "generator": "Sketchfab-12.68.0",
    "version": "2.0"
  },
  "bufferViews": [
    {
      "buffer": 0,
      "byteLength": 162876,
      "name": "floatBufferViews",
      "target": 34963
    },
    {
      "buffer": 0,
      "byteLength": 66824,
      "byteOffset": 162876,
      "byteStride": 8,
      "name": "floatBufferViews",
      "target": 34962
    },
    {
      "buffer": 0,
      "byteLength": 200472,
      "byteOffset": 229700,
      "byteStride": 12,
      "name": "floatBufferViews",
      "target": 34962
    }
  ],
  "buffers": [
    {
      "byteLength": 430172,
      "uri": "scene.bin"
    }
  ],
  "materials": [
    {
      "doubleSided": true,
      "name": "initialShadingGroup",
      "pbrMetallicRoughness": {
        "metallicFactor": 0.0,
        "roughnessFactor": 0.6
      }
    },
    {
      "doubleSided": true,
      "name": "wk1_signature_coyne_liamSignaturetypeBlinnSG",
      "pbrMetallicRoughness": {
        "metallicFactor": 0.0,
        "roughnessFactor": 0.6
      }
    }
  ],
  "meshes": [
    {
      "name": "Object_0",
      "primitives": [
        {
          "attributes": {
            "NORMAL": 1,
            "POSITION": 0,
            "TEXCOORD_0": 2
          },
          "indices": 3,
          "material": 0,
          "mode": 4
        }
      ]
    },
    {
      "name": "Object_1",
      "primitives": [
        {
          "attributes": {
            "NORMAL": 5,
            "POSITION": 4,
            "TEXCOORD_0": 6
          },
          "indices": 7,
          "material": 1,
          "mode": 4
        }
      ]
    }
  ],
  "nodes": [
    {
      "children": [
        1
      ],
      "matrix": [
        1.0,
        0.0,
        0.0,
        0.0,
        0.0,
        2.220446049250313e-16,
        -1.0,
        0.0,
        0.0,
        1.0,
        2.220446049250313e-16,
        0.0,
        0.0,
        0.0,
        0.0,
        1.0
      ],
      "name": "Sketchfab_model"
    },
    {
      "children": [
        2,
        3
      ],
      "name": "wk3_doric_pillar_final(2).obj.cleaner.materialmerger.gles"
    },
    {
      "mesh": 0,
      "name": "Object_2"
    },
    {
      "mesh": 1,
      "name": "Object_3"
    }
  ],
  "scene": 0,
  "scenes": [
    {
      "name": "Sketchfab_Scene",
      "nodes": [
        0
      ]
    }
  ]
}
