{
  "accessors": [
    {
      "bufferView": 1,
      "componentType": 5126,
      "count": 318,
      "max": [
        0.32799810171127319,
        0.18170222640037537,
        1.0627024173736572
      ],
      "min": [
        -0.21944382786750793,
        -0.31672409176826477,
        0.00093460269272327423
      ],
      "type": "VEC3"
    },
    {
      "bufferView": 1,
      "byteOffset": 3816,
      "componentType": 5126,
      "count": 318,
      "max": [
        0.99999994039535522,
        0.87814372777938843,
        1
      ],
      "min": [
        -0.99745124578475952,
        -0.87814372777938843,
        -0.99772810935974121
      ],
      "type": "VEC3"
    },
    {
      "bufferView": 0,
      "componentType": 5125,
      "count": 486,
      "max": [
        317
      ],
      "min": [
        0
      ],
      "type": "SCALAR"
    },
    {
      "bufferView": 1,
      "byteOffset": 7632,
      "componentType": 5126,
      "count": 660,
      "max": [
        0.41496768593788147,
        0.26917028427124023,
        1.1976317167282104
      ],
      "min": [
        -0.1272483766078949,
        -0.31591793894767761,
        1.0466635227203369
      ],
      "type": "VEC3"
    },
    {
      "bufferView": 1,
      "byteOffset": 15552,
      "componentType": 5126,
      "count": 660,
      "max": [
        0.9747779369354248,
        0.99903130531311035,
        0.99344027042388916
      ],
      "min": [
        -0.98153394460678101,
        -0.9994739294052124,
        -0.99244099855422974
      ],
      "type": "VEC3"
    },
    {
      "bufferView": 0,
      "byteOffset": 1944,
      "componentType": 5125,
      "count": 1056,
      "max": [
        659
      ],
      "min": [
        0
      ],
      "type": "SCALAR"
    },
    {
      "bufferView": 1,
      "byteOffset": 23472,
      "componentType": 5126,
      "count": 45,
      "max": [
        0.20986814796924591,
        0.036373831331729889,
        1.1303805112838745
      ],
      "min": [
        0.080932840704917908,
        -0.086249865591526031,
        1.0725418329238892
      ],
      "type": "VEC3"
    },
    {
      "bufferView": 1,
      "byteOffset": 24012,
      "componentType": 5126,
      "count": 45,
      "max": [
        0.94548392295837402,
        0.899211585521698,
        0.92079645395278931
      ],
      "min": [
        -0.94548541307449341,
        -0.8992125391960144,
        -0.32566887140274048
      ],
      "type": "VEC3"
    },
    {
      "bufferView": 0,
      "byteOffset": 6168,
      "componentType": 5125,
      "count": 45,
      "max": [
        44
      ],
      "min": [
        0
      ],
      "type": "SCALAR"
    }
  ],
  "asset": {
    "extras": {
      "author": "blujay (https://sketchfab.com/blujay)",
      "license": "CC-BY-4.0 (http://creativecommons.org/licenses/by/4.0/)",
      "source": "https://sketchfab.com/models/d813ac09f52849a3a8c57e14076e4b83",
      "title": "Calendula flower"
    },
    "generator": "Sketchfab-3.18.5",
    "version": "2.0"
  },
  "bufferViews": [
    {
      "buffer": 0,
      "byteLength": 6348,
      "byteOffset": 0,
      "name": "floatBufferViews",
      "target": 34963
    },
    {
      "buffer": 0,
      "byteLength": 24552,
      "byteOffset": 6348,
      "byteStride": 12,
      "name": "floatBufferViews",
      "target": 34962
    }
  ],
  "buffers": [
    {
      "byteLength": 30900,
      "uri": "scene.bin"
    }
  ],
  "materials": [
    {
      "doubleSided": true,
      "emissiveFactor": [
        0,
        0,
        0
      ],
      "name": "green",
      "pbrMetallicRoughness": {
        "baseColorFactor": [
          0.18782099999999999,
          0.258183,
          0.042311399999999999,
          1
        ],
        "metallicFactor": 0,
        "roughnessFactor": 0.82394172570000002
      }
    },
    {
      "doubleSided": true,
      "emissiveFactor": [
        0,
        0,
        0
      ],
      "name": "orange",
      "pbrMetallicRoughness": {
        "baseColorFactor": [
          0.99110200000000004,
          0.18116399999999999,
          0,
          1
        ],
        "metallicFactor": 0,
        "roughnessFactor": 0.82394172570000002
      }
    },
    {
      "doubleSided": true,
      "emissiveFactor": [
        0,
        0,
        0
      ],
      "name": "yellow",
      "pbrMetallicRoughness": {
        "baseColorFactor": [
          0.95597299999999996,
          0.45078600000000002,
          0.00030352599999999998,
          1
        ],
        "metallicFactor": 0,
        "roughnessFactor": 1
      }
    }
  ],
  "meshes": [
    {
      "name": "calendula-flower_green_0",
      "primitives": [
        {
          "attributes": {
            "NORMAL": 1,
            "POSITION": 0
          },
          "indices": 2,
          "material": 0,
          "mode": 4
        }
      ]
    },
    {
      "name": "calendula-flower_orange_0",
      "primitives": [
        {
          "attributes": {
            "NORMAL": 4,
            "POSITION": 3
          },
          "indices": 5,
          "material": 1,
          "mode": 4
        }
      ]
    },
    {
      "name": "calendula-flower_yellow_0",
      "primitives": [
        {
          "attributes": {
            "NORMAL": 7,
            "POSITION": 6
          },
          "indices": 8,
          "material": 2,
          "mode": 4
        }
      ]
    }
  ],
  "nodes": [
    {
      "children": [
        1
      ],
      "name": "RootNode (gltf orientation matrix)",
      "rotation": [
        -0.70710678118654746,
        -0,
        -0,
        0.70710678118654757
      ]
    },
    {
      "children": [
        2
      ],
      "name": "RootNode (model correction matrix)"
    },
    {
      "children": [
        3
      ],
      "matrix": [
        1,
        0,
        0,
        0,
        0,
        0,
        1,
        0,
        0,
        -1,
        0,
        0,
        0,
        0,
        0,
        1
      ],
      "name": "ed7d5357c7d14caa88a8bb2bf0e4f225.fbx"
    },
    {
      "children": [
        4
      ],
      "name": "RootNode"
    },
    {
      "children": [
        5,
        6,
        7
      ],
      "matrix": [
        1,
        0,
        0,
        0,
        0,
        -1.6292067939183141e-07,
        -0.99999999999998679,
        0,
        0,
        0.99999999999998679,
        -1.6292067939183141e-07,
        0,
        0,
        0,
        0,
        1
      ],
      "name": "calendula-flower"
    },
    {
      "mesh": 0,
      "name": "calendula-flower_green_0"
    },
    {
      "mesh": 1,
      "name": "calendula-flower_orange_0"
    },
    {
      "mesh": 2,
      "name": "calendula-flower_yellow_0"
    }
  ],
  "scene": 0,
  "scenes": [
    {
      "name": "OSG_Scene",
      "nodes": [
        0
      ]
    }
  ]
}

