{
  "accessors": [
    {
      "bufferView": 2,
      "componentType": 5126,
      "count": 5465,
      "max": [
        1.494232177734375,
        1.6229242086410522,
        1.4944506883621216
      ],
      "min": [
        -1.4943151473999023,
        -0.9854090213775635,
        -1.4940978288650513
      ],
      "type": "VEC3"
    },
    {
      "bufferView": 2,
      "byteOffset": 65580,
      "componentType": 5126,
      "count": 5465,
      "max": [
        1.0,
        1.0,
        1.0
      ],
      "min": [
        -1.0,
        -1.0,
        -1.0
      ],
      "type": "VEC3"
    },
    {
      "bufferView": 3,
      "componentType": 5126,
      "count": 5465,
      "max": [
        0.999994158744812,
        1.0,
        1.0,
        1.0
      ],
      "min": [
        -0.9999971985816956,
        -0.9991476535797119,
        -1.0,
        1.0
      ],
      "type": "VEC4"
    },
    {
      "bufferView": 1,
      "componentType": 5126,
      "count": 5465,
      "max": [
        0.9958856105804443,
        0.99609375
      ],
      "min": [
        0.00390625,
        0.00390625
      ],
      "type": "VEC2"
    },
    {
      "bufferView": 1,
      "byteOffset": 43720,
      "componentType": 5126,
      "count": 5465,
      "max": [
        0.9958856105804443,
        0.99609375
      ],
      "min": [
        0.00390625,
        0.00390625
      ],
      "type": "VEC2"
    },
    {
      "bufferView": 1,
      "byteOffset": 87440,
      "componentType": 5126,
      "count": 5465,
      "max": [
        0.9958856105804443,
        0.99609375
      ],
      "min": [
        0.00390625,
        0.00390625
      ],
      "type": "VEC2"
    },
    {
      "bufferView": 1,
      "byteOffset": 131160,
      "componentType": 5126,
      "count": 5465,
      "max": [
        0.9958856105804443,
        0.99609375
      ],
      "min": [
        0.00390625,
        0.00390625
      ],
      "type": "VEC2"
    },
    {
      "bufferView": 1,
      "byteOffset": 174880,
      "componentType": 5126,
      "count": 5465,
      "max": [
        0.9958856105804443,
        0.99609375
      ],
      "min": [
        0.00390625,
        0.00390625
      ],
      "type": "VEC2"
    },
    {
      "bufferView": 1,
      "byteOffset": 218600,
      "componentType": 5126,
      "count": 5465,
      "max": [
        0.9958856105804443,
        0.99609375
      ],
      "min": [
        0.00390625,
        0.00390625
      ],
      "type": "VEC2"
    },
    {
      "bufferView": 1,
      "byteOffset": 262320,
      "componentType": 5126,
      "count": 5465,
      "max": [
        0.9958856105804443,
        0.99609375
      ],
      "min": [
        0.00390625,
        0.00390625
      ],
      "type": "VEC2"
    },
    {
      "bufferView": 1,
      "byteOffset": 306040,
      "componentType": 5126,
      "count": 5465,
      "max": [
        0.9958856105804443,
        0.99609375
      ],
      "min": [
        0.00390625,
        0.00390625
      ],
      "type": "VEC2"
    },
    {
      "bufferView": 1,
      "byteOffset": 349760,
      "componentType": 5126,
      "count": 5465,
      "max": [
        0.9958856105804443,
        0.99609375
      ],
      "min": [
        0.00390625,
        0.00390625
      ],
      "type": "VEC2"
    },
    {
      "bufferView": 1,
      "byteOffset": 393480,
      "componentType": 5126,
      "count": 5465,
      "max": [
        0.9958856105804443,
        0.99609375
      ],
      "min": [
        0.00390625,
        0.00390625
      ],
      "type": "VEC2"
    },
    {
      "bufferView": 0,
      "componentType": 5125,
      "count": 25938,
      "type": "SCALAR"
    }
  ],
  "asset": {
    "extras": {
      "author": "annakhobta (https://sketchfab.com/annakhobta)",
      "license": "CC-BY-4.0 (http://creativecommons.org/licenses/by/4.0/)",
      "source": "https://sketchfab.com/3d-models/rune-crystal-64684cfd03a14285a75c8473647a4b15",
      "title": "rune crystal"
    },
    "generator": "Sketchfab-11.37.1",
    "version": "2.0"
  },
  "bufferViews": [
    {
      "buffer": 0,
      "byteLength": 103752,
      "name": "floatBufferViews",
      "target": 34963
    },
    {
      "buffer": 0,
      "byteLength": 437200,
      "byteOffset": 103752,
      "byteStride": 8,
      "name": "floatBufferViews",
      "target": 34962
    },
    {
      "buffer": 0,
      "byteLength": 131160,
      "byteOffset": 540952,
      "byteStride": 12,
      "name": "floatBufferViews",
      "target": 34962
    },
    {
      "buffer": 0,
      "byteLength": 87440,
      "byteOffset": 672112,
      "byteStride": 16,
      "name": "floatBufferViews",
      "target": 34962
    }
  ],
  "buffers": [
    {
      "byteLength": 759552,
      "uri": "scene.bin"
    }
  ],
  "images": [
    {
      "uri": "textures/Material_111_baseColor.png"
    },
    {
      "uri": "textures/Material_111_metallicRoughness.png"
    },
    {
      "uri": "textures/Material_111_emissive.png"
    },
    {
      "uri": "textures/Material_111_normal.png"
    }
  ],
  "materials": [
    {
      "doubleSided": true,
      "emissiveFactor": [
        1.0,
        1.0,
        1.0
      ],
      "emissiveTexture": {
        "index": 2
      },
      "name": "Material_111",
      "normalTexture": {
        "index": 3
      },
      "pbrMetallicRoughness": {
        "baseColorTexture": {
          "index": 0
        },
        "metallicRoughnessTexture": {
          "index": 1
        }
      }
    }
  ],
  "meshes": [
    {
      "name": "Platform_Low_Material #111_0",
      "primitives": [
        {
          "attributes": {
            "NORMAL": 1,
            "POSITION": 0,
            "TANGENT": 2,
            "TEXCOORD_0": 3,
            "TEXCOORD_1": 4,
            "TEXCOORD_2": 5,
            "TEXCOORD_3": 6,
            "TEXCOORD_4": 7,
            "TEXCOORD_5": 8,
            "TEXCOORD_6": 9,
            "TEXCOORD_7": 10,
            "TEXCOORD_8": 11,
            "TEXCOORD_9": 12
          },
          "indices": 13,
          "material": 0,
          "mode": 4
        }
      ]
    }
  ],
  "nodes": [
    {
      "children": [
        1
      ],
      "matrix": [
        1.0,
        0.0,
        0.0,
        0.0,
        0.0,
        2.220446049250313e-16,
        -1.0,
        0.0,
        0.0,
        1.0,
        2.220446049250313e-16,
        0.0,
        0.0,
        0.0,
        0.0,
        1.0
      ],
      "name": "Sketchfab_model"
    },
    {
      "children": [
        2
      ],
      "matrix": [
        1.0,
        0.0,
        0.0,
        0.0,
        0.0,
        0.0,
        1.0,
        0.0,
        0.0,
        -1.0,
        0.0,
        0.0,
        0.0,
        0.0,
        0.0,
        1.0
      ],
      "name": "5057a353db9646ccb7b46303bc799a26.fbx"
    },
    {
      "children": [
        3
      ],
      "name": "RootNode"
    },
    {
      "children": [
        4
      ],
      "matrix": [
        -30.33485031127356,
        1.4464783820660911e-05,
        -1.1812826413710152e-05,
        0.0,
        -1.2384733503889921e-05,
        -25.97266197204167,
        8.153241959141968e-06,
        0.0,
        -1.1812821872976805e-05,
        9.522609617261002e-06,
        30.334850311275503,
        0.0,
        352.443115234375,
        5.024496078491211,
        614.978271484375,
        1.0
      ],
      "name": "Platform_Low"
    },
    {
      "children": [
        5
      ],
      "matrix": [
        1.0,
        0.0,
        -0.0,
        0.0,
        0.0,
        1.0,
        0.0,
        0.0,
        0.0,
        0.0,
        1.0,
        0.0,
        4.127809006604366e-05,
        -1.4294703006744385,
        -0.00017587852198630571,
        1.0
      ],
      "name": "Object_4"
    },
    {
      "mesh": 0,
      "name": "Platform_Low_Material #111_0"
    }
  ],
  "samplers": [
    {
      "magFilter": 9729,
      "minFilter": 9987,
      "wrapS": 10497,
      "wrapT": 10497
    }
  ],
  "scene": 0,
  "scenes": [
    {
      "name": "Sketchfab_Scene",
      "nodes": [
        0
      ]
    }
  ],
  "textures": [
    {
      "sampler": 0,
      "source": 0
    },
    {
      "sampler": 0,
      "source": 1
    },
    {
      "sampler": 0,
      "source": 2
    },
    {
      "sampler": 0,
      "source": 3
    }
  ]
}
